<svg xmlns="http://www.w3.org/2000/svg" xmlns:xlink="http://www.w3.org/1999/xlink" width="24" height="24" viewBox="0 0 24 24" fill="none"><defs><rect id="path_0" x="0" y="0" width="24" height="24" /></defs><g opacity="1" transform="translate(0 0)  rotate(0 12 12)"><mask id="bg-mask-0" fill="white"><use xlink:href="#path_0"></use></mask><g mask="url(#bg-mask-0)" ><path  id="并集" style="stroke:#222625; stroke-width:2; stroke-opacity:1; stroke-dasharray:0 0" transform="translate(1.7807007064356508 3.9852832970197136)  rotate(-45 8.578177856120364 5.242219800962444)" d="M3.81,5.72L1.91,3.81L0,3.81L0.6,8.03C0.8,9.44 2.01,10.48 3.43,10.48L17.16,10.48L16.66,8.02C16.39,6.68 15.22,5.72 13.86,5.72L10.48,5.72L7.63,0L4.77,0L5.72,5.72L3.81,5.72Z " /><path id="直线 1"  style="fill:#000000" transform="translate(6 21)  rotate(0 6 0.0005)" opacity="100" d="M11.9999 -1L12 -1Q12.1989 -1 12.3826 -0.923896Q12.5664 -0.847791 12.707 -0.707166Q12.8477 -0.566525 12.9238 -0.38276Q13 -0.198996 13 -8.33332e-05Q13 0.0984081 12.9808 0.195009Q12.9616 0.291609 12.9239 0.382606Q12.8862 0.473604 12.8315 0.555501Q12.7768 0.637398 12.7072 0.707048Q12.6375 0.776698 12.5556 0.831423Q12.4738 0.886149 12.3828 0.923848Q12.2918 0.961546 12.1952 0.980769Q12.0986 0.999992 12.0001 1L12 0L12 1L8.325e-05 1L8.33333e-05 1.001Q-0.0984081 1.00101 -0.195009 0.981801Q-0.291609 0.962595 -0.382606 0.924911Q-0.473604 0.887228 -0.555501 0.832516Q-0.637398 0.777804 -0.707048 0.708166Q-0.776698 0.638528 -0.831423 0.55664Q-0.886149 0.474751 -0.923848 0.38376Q-0.961546 0.292769 -0.980769 0.196172Q-0.999992 0.0995747 -1 0.00108335Q-1.00001 -0.097408 -0.980801 -0.194009Q-0.961595 -0.290609 -0.923911 -0.381606Q-0.886228 -0.472604 -0.831516 -0.554501Q-0.776804 -0.636398 -0.707166 -0.706048Q-0.637528 -0.775697 -0.555639 -0.830423Q-0.473751 -0.885149 -0.38276 -0.922848Q-0.291769 -0.960546 -0.195172 -0.979769Q-0.0985747 -0.998992 -8.33333e-05 -0.999L0 0.000999959L0 -1L11.9999 -1Z " /><path  id="直线 1" style="stroke:#222625; stroke-width:2; stroke-opacity:1; stroke-dasharray:0 0" transform="translate(6 21)  rotate(0 6 0.0005)" d="" /></g></g></svg>