<svg xmlns="http://www.w3.org/2000/svg" xmlns:xlink="http://www.w3.org/1999/xlink" width="24" height="24" viewBox="0 0 24 24" fill="none"><defs><rect id="path_0" x="0" y="0" width="24" height="24" /></defs><g opacity="1" transform="translate(0 0)  rotate(0 12 12)"><mask id="bg-mask-0" fill="white"><use xlink:href="#path_0"></use></mask><g mask="url(#bg-mask-0)" ><rect  id="矩形 1" style="stroke:#222625; stroke-width:2; stroke-opacity:1; stroke-dasharray:0 0" transform="translate(4 3)  rotate(0 8 7.5)" x="1" y="1" rx="0"  width="16" height="13" /><rect  id="矩形 1" style="stroke:#222625; stroke-width:2; stroke-opacity:1; stroke-dasharray:0 0" transform="translate(6 18)  rotate(0 1.5 1.5)" x="1" y="1" rx="0"  width="3" height="1" /><rect  id="矩形 1" style="stroke:#222625; stroke-width:2; stroke-opacity:1; stroke-dasharray:0 0" transform="translate(15 18)  rotate(0 1.5 1.5)" x="1" y="1" rx="0"  width="3" height="1" /><path id="直线 1"  style="fill:#000000" transform="translate(4 10)  rotate(0 8 1)" opacity="100" d="M-0.5547 0.83205Q-0.63665 0.777417 -0.706367 0.707846Q-0.776083 0.638275 -0.830888 0.55644Q-0.885692 0.474604 -0.923479 0.38365Q-0.961265 0.292695 -0.980581 0.196116Q-0.999896 0.0995374 -0.999999 0.00104603Q-1.0001 -0.0974453 -0.980989 -0.194064Q-0.961875 -0.290683 -0.924279 -0.381717Q-0.886683 -0.47275 -0.83205 -0.5547Q-0.777417 -0.63665 -0.707846 -0.706367Q-0.638275 -0.776083 -0.55644 -0.830888Q-0.474604 -0.885692 -0.38365 -0.923479Q-0.292695 -0.961265 -0.196116 -0.980581Q-0.0995374 -0.999896 -0.00104603 -0.999999Q0.0974453 -1.0001 0.194064 -0.980989Q0.290683 -0.961875 0.381717 -0.924279Q0.47275 -0.886683 0.5547 -0.83205L3.30278 1L12.6972 1L15.4453 -0.83205Q15.6108 -0.942387 15.8059 -0.980989Q16.0011 -1.01959 16.1961 -0.98058Q16.3912 -0.94157 16.5564 -0.830888Q16.7217 -0.720205 16.8321 -0.5547Q16.9424 -0.389195 16.981 -0.194064Q17.0196 0.00106708 16.9806 0.196117Q16.9416 0.391166 16.8309 0.55644Q16.7202 0.721714 16.5547 0.83205L13.5547 2.83205Q13.3028 3 13 3L3 3Q2.69722 3 2.4453 2.83205L-0.5547 0.83205Z " /><path  id="直线 1" style="stroke:#222625; stroke-width:2; stroke-opacity:1; stroke-dasharray:0 0" transform="translate(4 10)  rotate(0 8 1)" d="" /><path id="圆形 1"  style="fill:#000000" transform="translate(14 9)  rotate(0 2 1)" opacity="100" d="M3 2Q3 1.79758 2.92152 1.60139Q2.8548 1.44152 2.72225 1.31595Q2.70264 1.29736 2.68405 1.27774Q2.55848 1.1452 2.38538 1.07308Q2.20242 1 2 1Q1.79758 1 1.60139 1.07848Q1.44152 1.1452 1.31595 1.27774Q1.29736 1.29736 1.27774 1.31595Q1.1452 1.44152 1.07308 1.61462Q1 1.79758 1 2Q1 2.09849 0.980785 2.19509Q0.96157 2.29169 0.923879 2.38268Q0.886188 2.47368 0.83147 2.55557Q0.776751 2.63746 0.707107 2.70711Q0.637463 2.77675 0.55557 2.83147Q0.473678 2.88619 0.382683 2.92388Q0.291689 2.96157 0.19509 2.98078Q0.0984914 3 0 3Q-0.0984914 3 -0.19509 2.98078Q-0.291689 2.96157 -0.382683 2.92388Q-0.473678 2.88619 -0.55557 2.83147Q-0.637463 2.77675 -0.707107 2.70711Q-0.776751 2.63746 -0.83147 2.55557Q-0.886188 2.47368 -0.923879 2.38268Q-0.96157 2.29169 -0.980785 2.19509Q-1 2.09849 -1 2Q-1 1.41242 -0.773077 0.845385Q-0.543181 0.293635 -0.117221 -0.117333Q0.294001 -0.543331 0.858609 -0.778477Q1.41242 -1 2 -1Q2.58758 -1 3.15462 -0.773077Q3.70636 -0.543182 4.11733 -0.117224Q4.54333 0.293999 4.77848 0.858607Q5 1.41242 5 2Q5 2.09849 4.98078 2.19509Q4.96157 2.29169 4.92388 2.38268Q4.88619 2.47368 4.83147 2.55557Q4.77675 2.63746 4.70711 2.70711Q4.63746 2.77675 4.55557 2.83147Q4.47368 2.88619 4.38268 2.92388Q4.29169 2.96157 4.19509 2.98078Q4.09849 3 4 3Q3.90151 3 3.80491 2.98078Q3.70831 2.96157 3.61732 2.92388Q3.52632 2.88619 3.44443 2.83147Q3.36254 2.77675 3.29289 2.70711Q3.22325 2.63746 3.16853 2.55557Q3.11381 2.47368 3.07612 2.38268Q3.03843 2.29169 3.01921 2.19509Q3 2.09849 3 2Z " /><path  id="圆形 1" style="stroke:#222625; stroke-width:2; stroke-opacity:1; stroke-dasharray:0 0" transform="translate(14 9)  rotate(0 2 1)" d="" /><path id="直线 2"  style="fill:#000000" transform="translate(7 15)  rotate(0 0.5 0.5)" opacity="100" d="M0 1Q-0.0984914 1 -0.19509 0.980785Q-0.291689 0.96157 -0.382683 0.923879Q-0.473678 0.886188 -0.55557 0.83147Q-0.637463 0.776751 -0.707107 0.707107Q-0.776751 0.637463 -0.83147 0.55557Q-0.886188 0.473678 -0.923879 0.382683Q-0.96157 0.291689 -0.980785 0.19509Q-1 0.0984914 -1 0Q-1 -0.0984914 -0.980785 -0.19509Q-0.96157 -0.291689 -0.923879 -0.382683Q-0.886188 -0.473678 -0.83147 -0.55557Q-0.776751 -0.637463 -0.707107 -0.707107Q-0.637463 -0.776751 -0.55557 -0.83147Q-0.473678 -0.886188 -0.382683 -0.923879Q-0.291689 -0.96157 -0.19509 -0.980785Q-0.0984914 -1 0 -1L1 -1Q1.09849 -1 1.19509 -0.980785Q1.29169 -0.96157 1.38268 -0.923879Q1.47368 -0.886188 1.55557 -0.83147Q1.63746 -0.776751 1.70711 -0.707107Q1.77675 -0.637463 1.83147 -0.55557Q1.88619 -0.473678 1.92388 -0.382683Q1.96157 -0.291689 1.98079 -0.19509Q2 -0.0984914 2 0Q2 0.0984914 1.98079 0.19509Q1.96157 0.291689 1.92388 0.382683Q1.88619 0.473678 1.83147 0.55557Q1.77675 0.637463 1.70711 0.707107Q1.63746 0.776751 1.55557 0.83147Q1.47368 0.886188 1.38268 0.923879Q1.29169 0.96157 1.19509 0.980785Q1.09849 1 1 1L0 1Z " /><path  id="直线 2" style="stroke:#222625; stroke-width:2; stroke-opacity:1; stroke-dasharray:0 0" transform="translate(7 15)  rotate(0 0.5 0.5)" d="" /><path id="直线 2"  style="fill:#000000" transform="translate(16 15)  rotate(0 0.5 0.5)" opacity="100" d="M0 1Q-0.0984914 1 -0.19509 0.980785Q-0.291689 0.96157 -0.382683 0.923879Q-0.473678 0.886188 -0.55557 0.83147Q-0.637463 0.776751 -0.707107 0.707107Q-0.776751 0.637463 -0.83147 0.55557Q-0.886188 0.473678 -0.923879 0.382683Q-0.96157 0.291689 -0.980785 0.19509Q-1 0.0984914 -1 0Q-1 -0.0984914 -0.980785 -0.19509Q-0.96157 -0.291689 -0.923879 -0.382683Q-0.886188 -0.473678 -0.83147 -0.55557Q-0.776751 -0.637463 -0.707107 -0.707107Q-0.637463 -0.776751 -0.55557 -0.83147Q-0.473678 -0.886188 -0.382683 -0.923879Q-0.291689 -0.96157 -0.19509 -0.980785Q-0.0984914 -1 0 -1L1 -1Q1.09849 -1 1.19509 -0.980785Q1.29169 -0.96157 1.38268 -0.923879Q1.47368 -0.886188 1.55557 -0.83147Q1.63746 -0.776751 1.70711 -0.707107Q1.77675 -0.637463 1.83147 -0.55557Q1.88619 -0.473678 1.92388 -0.382683Q1.96157 -0.291689 1.98079 -0.19509Q2 -0.0984914 2 0Q2 0.0984914 1.98079 0.19509Q1.96157 0.291689 1.92388 0.382683Q1.88619 0.473678 1.83147 0.55557Q1.77675 0.637463 1.70711 0.707107Q1.63746 0.776751 1.55557 0.83147Q1.47368 0.886188 1.38268 0.923879Q1.29169 0.96157 1.19509 0.980785Q1.09849 1 1 1L0 1Z " /><path  id="直线 2" style="stroke:#222625; stroke-width:2; stroke-opacity:1; stroke-dasharray:0 0" transform="translate(16 15)  rotate(0 0.5 0.5)" d="" /><path id="矩形 2" fill-rule="evenodd" style="fill:#222625" transform="translate(20 7)  rotate(0 1 2)" opacity="1" d="M1,4L1,4C1.27,4 1.52,3.89 1.71,3.71C1.89,3.52 2,3.27 2,3L2,1C2,0.73 1.89,0.48 1.71,0.29C1.52,0.11 1.27,0 1,0L1,0C0.73,0 0.48,0.11 0.29,0.29C0.11,0.48 0,0.73 0,1L0,3C0,3.27 0.11,3.52 0.29,3.71C0.48,3.89 0.73,4 1,4Z " /><path id="矩形 2" fill-rule="evenodd" style="fill:#222625" transform="translate(2 7)  rotate(0 1 2)" opacity="1" d="M1,4L1,4C1.27,4 1.52,3.89 1.71,3.71C1.89,3.52 2,3.27 2,3L2,1C2,0.73 1.89,0.48 1.71,0.29C1.52,0.11 1.27,0 1,0L1,0C0.73,0 0.48,0.11 0.29,0.29C0.11,0.48 0,0.73 0,1L0,3C0,3.27 0.11,3.52 0.29,3.71C0.48,3.89 0.73,4 1,4Z " /></g></g></svg>