<svg xmlns="http://www.w3.org/2000/svg" xmlns:xlink="http://www.w3.org/1999/xlink" width="24" height="24" viewBox="0 0 24 24" fill="none"><defs><rect id="path_0" x="0" y="0" width="24" height="24" /></defs><g opacity="1" transform="translate(0 0)  rotate(0 12 12)"><mask id="bg-mask-0" fill="white"><use xlink:href="#path_0"></use></mask><g mask="url(#bg-mask-0)" ><path id="路径 1"  style="fill:#000000" transform="translate(8 10)  rotate(0 4 2)" opacity="100" d="M-0.707107 0.707107Q-0.776751 0.637463 -0.83147 0.55557Q-0.886188 0.473678 -0.923879 0.382683Q-0.96157 0.291689 -0.980785 0.19509Q-1 0.0984914 -1 0Q-1 -0.0984914 -0.980785 -0.19509Q-0.96157 -0.291689 -0.923879 -0.382683Q-0.886188 -0.473678 -0.83147 -0.55557Q-0.776751 -0.637463 -0.707107 -0.707107Q-0.637463 -0.776751 -0.55557 -0.83147Q-0.473678 -0.886188 -0.382683 -0.923879Q-0.291689 -0.96157 -0.19509 -0.980785Q-0.0984914 -1 0 -1Q0.0984914 -1 0.19509 -0.980785Q0.291689 -0.96157 0.382683 -0.923879Q0.473678 -0.886188 0.55557 -0.83147Q0.637463 -0.776751 0.707107 -0.707107L4 2.58579L7.29289 -0.707107Q7.36254 -0.776751 7.44443 -0.831469Q7.52632 -0.886188 7.61732 -0.923879Q7.70831 -0.96157 7.80491 -0.980785Q7.90151 -1 8 -1Q8.09849 -1 8.19509 -0.980785Q8.29169 -0.96157 8.38268 -0.923879Q8.47368 -0.886188 8.55557 -0.831469Q8.63746 -0.77675 8.70711 -0.707107Q8.77675 -0.637463 8.83147 -0.55557Q8.88619 -0.473677 8.92388 -0.382683Q8.96157 -0.291689 8.98078 -0.19509Q9 -0.0984914 9 0Q9 0.0984914 8.98078 0.19509Q8.96157 0.291689 8.92388 0.382683Q8.88619 0.473677 8.83147 0.55557Q8.77675 0.637463 8.70711 0.707107L4.70711 4.70711Q4.56645 4.84776 4.38268 4.92388Q4.19891 5 4 5Q3.80109 5 3.61732 4.92388Q3.43355 4.84776 3.29289 4.70711L-0.707107 0.707107Z " /><path  id="路径 1" style="stroke:#222625; stroke-width:2; stroke-opacity:1; stroke-dasharray:0 0" transform="translate(8 10)  rotate(0 4 2)" d="" /></g></g></svg>