<svg xmlns="http://www.w3.org/2000/svg" xmlns:xlink="http://www.w3.org/1999/xlink" width="24" height="24" viewBox="0 0 24 24" fill="none"><defs><rect id="path_0" x="0" y="0" width="24" height="24" /></defs><g opacity="1" transform="translate(0 0)  rotate(0 12 12)"><mask id="bg-mask-0" fill="white"><use xlink:href="#path_0"></use></mask><g mask="url(#bg-mask-0)" ><path id="直线 1"  style="fill:#000000" transform="translate(6 19)  rotate(0 1 1)" opacity="100" d="M2 -1Q1.80109 -1 1.61732 -0.923879Q1.43355 -0.847759 1.29289 -0.707107L-0.707107 1.29289Q-0.847759 1.43355 -0.92388 1.61732Q-1 1.80109 -1 2Q-1 2.19891 -0.92388 2.38268Q-0.847759 2.56645 -0.707107 2.70711Q-0.566454 2.84776 -0.382683 2.92388Q-0.198912 3 0 3Q0.198912 3 0.382683 2.92388Q0.566454 2.84776 0.707107 2.70711L2.70711 0.707107Q2.84776 0.566454 2.92388 0.382683Q3 0.198912 3 0Q3 -0.198912 2.92388 -0.382683Q2.84776 -0.566454 2.70711 -0.707107Q2.56645 -0.847759 2.38268 -0.923879Q2.19891 -1 2 -1Z " /><path  id="直线 1" style="stroke:#222625; stroke-width:2; stroke-opacity:1; stroke-dasharray:0 0" transform="translate(6 19)  rotate(0 1 1)" d="" /><path id="直线 1"  style="fill:#000000" transform="translate(16 19)  rotate(0 1 1)" opacity="100" d="M-0.707107 -0.707107Q-0.776751 -0.637463 -0.83147 -0.55557Q-0.886188 -0.473678 -0.923879 -0.382683Q-0.96157 -0.291689 -0.980785 -0.19509Q-1 -0.0984914 -1 0Q-1 0.0984914 -0.980785 0.19509Q-0.96157 0.291689 -0.923879 0.382683Q-0.886188 0.473678 -0.83147 0.55557Q-0.776751 0.637463 -0.707107 0.707107L1.29289 2.70711Q1.35777 2.77198 1.43337 2.82397Q1.50502 2.87324 1.58409 2.90941Q1.66317 2.94557 1.74731 2.96755Q1.83144 2.98952 1.91811 2.99664Q2.00477 3.00376 2.09136 2.99582Q2.17796 2.98787 2.26188 2.9651Q2.3458 2.94233 2.42453 2.90541Q2.50326 2.8685 2.57444 2.81855Q2.64562 2.76859 2.70711 2.70711Q2.77675 2.63746 2.83147 2.55557Q2.88619 2.47368 2.92388 2.38268Q2.96157 2.29169 2.98078 2.19509Q3 2.09849 3 2Q3 1.90151 2.98078 1.80491Q2.96157 1.70831 2.92388 1.61732Q2.88619 1.52632 2.83147 1.44443Q2.77675 1.36254 2.70711 1.29289L0.707107 -0.707107Q0.637463 -0.776751 0.55557 -0.83147Q0.473678 -0.886188 0.382683 -0.923879Q0.291689 -0.96157 0.19509 -0.980785Q0.0984914 -1 0 -1Q-0.0984914 -1 -0.19509 -0.980785Q-0.291689 -0.96157 -0.382683 -0.923879Q-0.473678 -0.886188 -0.55557 -0.83147Q-0.637463 -0.776751 -0.707107 -0.707107Z " /><path  id="直线 1" style="stroke:#222625; stroke-width:2; stroke-opacity:1; stroke-dasharray:0 0" transform="translate(16 19)  rotate(0 1 1)" d="" /><path id="直线 1"  style="fill:#000000" transform="translate(11 6)  rotate(0 1 0.0005)" opacity="100" d="M3 -0.0005Q2.99995 -0.0989598 2.9807 -0.195519Q2.96145 -0.292079 2.92374 -0.38303Q2.88602 -0.473981 2.8313 -0.55583Q2.77657 -0.637679 2.70693 -0.707283Q2.63729 -0.776888 2.55541 -0.831574Q2.47354 -0.88626 2.38257 -0.923927Q2.2916 -0.961595 2.19503 -0.980797Q2.09846 -1 2 -1L0 -1L0 0.00100005L-0.0005 -0.999Q-0.0989914 -0.998951 -0.195581 -0.979687Q-0.29217 -0.960424 -0.383145 -0.922688Q-0.474121 -0.884951 -0.555986 -0.830192Q-0.637851 -0.775432 -0.70746 -0.705753Q-0.777069 -0.636074 -0.831747 -0.554154Q-0.886425 -0.472234 -0.924071 -0.381221Q-0.961716 -0.290208 -0.980883 -0.1936Q-1.00005 -0.0969914 -1 0.00150002Q-0.999951 0.0999914 -0.980688 0.196581Q-0.961425 0.29317 -0.923688 0.384145Q-0.885951 0.475121 -0.831192 0.556986Q-0.776432 0.638851 -0.706753 0.70846Q-0.637074 0.778069 -0.555154 0.832747Q-0.473234 0.887425 -0.382221 0.925071Q-0.291208 0.962716 -0.1946 0.981883Q-0.0979914 1.00105 0.0005 1.001L0.0004995 1L2 1L2 -2.98023e-08L2.0005 1Q2.09899 0.999951 2.19558 0.980688Q2.29217 0.961425 2.38314 0.923688Q2.47412 0.885951 2.55599 0.831192Q2.63785 0.776432 2.70746 0.706753Q2.77707 0.637074 2.83175 0.555154Q2.88643 0.473234 2.92407 0.382221Q2.96172 0.291208 2.98088 0.1946Q3.00005 0.0979914 3 -0.0005Z " /><path  id="直线 1" style="stroke:#222625; stroke-width:2; stroke-opacity:1; stroke-dasharray:0 0" transform="translate(11 6)  rotate(0 1 0.0005)" d="" /><path id="直线 1"  style="fill:#000000" transform="translate(5 13)  rotate(0 7 1)" opacity="100" d="M-0.651328 0.758797Q-0.802122 0.629359 -0.891967 0.4521Q-0.981813 0.27484 -0.997054 0.0766964Q-1.01231 -0.12163 -0.950509 -0.310698Q-0.888707 -0.499766 -0.759257 -0.650791Q-0.629806 -0.801817 -0.452415 -0.891808Q-0.275023 -0.981799 -0.0766964 -0.997054Q0.12163 -1.01231 0.310698 -0.950509Q0.499766 -0.888707 0.650791 -0.759257L0 0L0.651328 -0.758797Q0.744669 -0.678675 0.978131 -0.528459Q1.49068 -0.19867 2.14279 0.0809059Q4.28658 1 7 1Q9.71342 1 11.8572 0.0809059Q12.5093 -0.19867 13.0219 -0.528459Q13.2553 -0.678676 13.3487 -0.758797L14 0L13.3492 -0.759256Q13.424 -0.823354 13.5098 -0.87163Q13.5957 -0.919907 13.6893 -0.950508Q13.7829 -0.981109 13.8807 -0.992859Q13.9785 -1.00461 14.0767 -0.997054Q14.1749 -0.9895 14.2697 -0.962933Q14.3646 -0.936366 14.4524 -0.891807Q14.5402 -0.847248 14.6177 -0.78641Q14.6952 -0.725571 14.7593 -0.650791Q14.8233 -0.576045 14.8716 -0.49024Q14.9198 -0.404435 14.9505 -0.310866Q14.9811 -0.217296 14.9928 -0.119556Q15.0046 -0.0218151 14.9971 0.0763444Q14.9896 0.174504 14.963 0.269313Q14.9365 0.364123 14.892 0.451942Q14.8476 0.539761 14.7868 0.617218Q14.726 0.694676 14.6513 0.758797L14.6508 0.759256Q14.4529 0.928982 14.1041 1.15346Q13.451 1.57367 12.6453 1.91909Q10.1241 3 7 3Q3.87592 3 1.35471 1.91909Q0.549011 1.57367 -0.104068 1.15346Q-0.452947 0.928979 -0.650791 0.759257L-0.651328 0.758797Z " /><path  id="直线 1" style="stroke:#222625; stroke-width:2; stroke-opacity:1; stroke-dasharray:0 0" transform="translate(5 13)  rotate(0 7 1)" d="" /><path  id="矩形 1" style="stroke:#222625; stroke-width:2; stroke-opacity:1; stroke-dasharray:0 0" transform="translate(4 3)  rotate(0 8 8)" d="M3.19,16L12.81,16C13.64,16 14.43,15.66 14.99,15.05C15.56,14.45 15.85,13.64 15.8,12.81L15.18,2.81C15.08,1.23 13.77,0 12.18,0L3.82,0C2.23,0 0.92,1.23 0.82,2.81L0.2,12.81C0.15,13.64 0.44,14.45 1.01,15.05C1.57,15.66 2.36,16 3.19,16Z " /></g></g></svg>