<svg xmlns="http://www.w3.org/2000/svg" xmlns:xlink="http://www.w3.org/1999/xlink" width="24" height="24" viewBox="0 0 24 24" fill="none"><defs><rect id="path_0" x="0" y="0" width="24" height="24" /></defs><g opacity="1" transform="translate(0 0)  rotate(0 12 12)"><mask id="bg-mask-0" fill="white"><use xlink:href="#path_0"></use></mask><g mask="url(#bg-mask-0)" ><path id="矩形 1"  style="fill:#000000" transform="translate(5 5)  rotate(0 2 2)" opacity="100" d="M-1 4L-1 2Q-1 1.39129 -0.762573 0.832424Q-0.534286 0.295072 -0.119607 -0.119607Q0.295072 -0.534286 0.832424 -0.762573Q1.39129 -1 2 -1L4 -1Q4.09849 -1 4.19509 -0.980785Q4.29169 -0.96157 4.38268 -0.923879Q4.47368 -0.886188 4.55557 -0.83147Q4.63746 -0.776751 4.70711 -0.707107Q4.77675 -0.637463 4.83147 -0.55557Q4.88619 -0.473678 4.92388 -0.382683Q4.96157 -0.291689 4.98078 -0.19509Q5 -0.0984914 5 0Q5 0.0984914 4.98078 0.19509Q4.96157 0.291689 4.92388 0.382683Q4.88619 0.473678 4.83147 0.55557Q4.77675 0.637463 4.70711 0.707107Q4.63746 0.776751 4.55557 0.83147Q4.47368 0.886188 4.38268 0.923879Q4.29169 0.96157 4.19509 0.980785Q4.09849 1 4 1L2 1Q1.58921 1 1.29461 1.29461Q1 1.58921 1 2L1 4Q1 4.09849 0.980785 4.19509Q0.96157 4.29169 0.923879 4.38268Q0.886188 4.47368 0.83147 4.55557Q0.776751 4.63746 0.707107 4.70711Q0.637463 4.77675 0.55557 4.83147Q0.473678 4.88619 0.382683 4.92388Q0.291689 4.96157 0.19509 4.98078Q0.0984914 5 0 5Q-0.0984914 5 -0.19509 4.98078Q-0.291689 4.96157 -0.382683 4.92388Q-0.473678 4.88619 -0.55557 4.83147Q-0.637463 4.77675 -0.707107 4.70711Q-0.776751 4.63746 -0.83147 4.55557Q-0.886188 4.47368 -0.923879 4.38268Q-0.96157 4.29169 -0.980785 4.19509Q-1 4.09849 -1 4Z " /><path  id="矩形 1" style="stroke:#222625; stroke-width:2; stroke-opacity:1; stroke-dasharray:0 0" transform="translate(5 5)  rotate(0 2 2)" d="" /><path id="矩形 1"  style="fill:#000000" transform="translate(5 13)  rotate(0 2 3)" opacity="100" d="M-1 0Q-1 -0.0984914 -0.980785 -0.19509Q-0.96157 -0.291689 -0.923879 -0.382683Q-0.886188 -0.473678 -0.83147 -0.55557Q-0.776751 -0.637463 -0.707107 -0.707107Q-0.637463 -0.776751 -0.55557 -0.83147Q-0.473678 -0.886188 -0.382683 -0.923879Q-0.291689 -0.96157 -0.19509 -0.980785Q-0.0984914 -1 0 -1Q0.0984914 -1 0.19509 -0.980785Q0.291689 -0.96157 0.382683 -0.923879Q0.473678 -0.886188 0.55557 -0.83147Q0.637463 -0.776751 0.707107 -0.707107Q0.776751 -0.637463 0.83147 -0.55557Q0.886188 -0.473678 0.923879 -0.382683Q0.96157 -0.291689 0.980785 -0.19509Q1 -0.0984914 1 0L1 4Q1 4.41079 1.29461 4.70539Q1.58921 5 2 5L4 5Q4.09849 5 4.19509 5.01921Q4.29169 5.03843 4.38268 5.07612Q4.47368 5.11381 4.55557 5.16853Q4.63746 5.22325 4.70711 5.29289Q4.77675 5.36254 4.83147 5.44443Q4.88619 5.52632 4.92388 5.61732Q4.96157 5.70831 4.98078 5.80491Q5 5.90151 5 6Q5 6.09849 4.98078 6.19509Q4.96157 6.29169 4.92388 6.38268Q4.88619 6.47368 4.83147 6.55557Q4.77675 6.63746 4.70711 6.70711Q4.63746 6.77675 4.55557 6.83147Q4.47368 6.88619 4.38268 6.92388Q4.29169 6.96157 4.19509 6.98078Q4.09849 7 4 7L2 7Q1.39129 7 0.832424 6.76257Q0.295072 6.53429 -0.119607 6.11961Q-0.534286 5.70493 -0.762573 5.16758Q-1 4.60871 -1 4L-1 0Z " /><path  id="矩形 1" style="stroke:#222625; stroke-width:2; stroke-opacity:1; stroke-dasharray:0 0" transform="translate(5 13)  rotate(0 2 3)" d="" /><path id="矩形 1"  style="fill:#000000" transform="translate(15 5)  rotate(0 2 2)" opacity="100" d="M-1 0Q-1 0.0984914 -0.980785 0.19509Q-0.96157 0.291689 -0.923879 0.382683Q-0.886188 0.473678 -0.83147 0.55557Q-0.776751 0.637463 -0.707107 0.707107Q-0.637463 0.776751 -0.55557 0.83147Q-0.473678 0.886188 -0.382683 0.923879Q-0.291689 0.96157 -0.19509 0.980785Q-0.0984914 1 0 1L2 1Q2.41079 1 2.70539 1.29461Q3 1.58921 3 2L3 4Q3 4.09849 3.01921 4.19509Q3.03843 4.29169 3.07612 4.38268Q3.11381 4.47368 3.16853 4.55557Q3.22325 4.63746 3.29289 4.70711Q3.36254 4.77675 3.44443 4.83147Q3.52632 4.88619 3.61732 4.92388Q3.70831 4.96157 3.80491 4.98078Q3.90151 5 4 5Q4.09849 5 4.19509 4.98078Q4.29169 4.96157 4.38268 4.92388Q4.47368 4.88619 4.55557 4.83147Q4.63746 4.77675 4.70711 4.70711Q4.77675 4.63746 4.83147 4.55557Q4.88619 4.47368 4.92388 4.38268Q4.96157 4.29169 4.98078 4.19509Q5 4.09849 5 4L5 2Q5 1.39129 4.76257 0.832424Q4.53429 0.295073 4.11961 -0.119607Q3.70493 -0.534286 3.16758 -0.762573Q2.60871 -1 2 -1L0 -1Q-0.0984914 -1 -0.19509 -0.980785Q-0.291689 -0.96157 -0.382683 -0.923879Q-0.473678 -0.886188 -0.55557 -0.83147Q-0.637463 -0.776751 -0.707107 -0.707107Q-0.776751 -0.637463 -0.83147 -0.55557Q-0.886188 -0.473678 -0.923879 -0.382683Q-0.96157 -0.291689 -0.980785 -0.19509Q-1 -0.0984914 -1 0Z " /><path  id="矩形 1" style="stroke:#222625; stroke-width:2; stroke-opacity:1; stroke-dasharray:0 0" transform="translate(15 5)  rotate(0 2 2)" d="" /><path id="矩形 1"  style="fill:#000000" transform="translate(15 13)  rotate(0 2 3)" opacity="100" d="M3 0Q3 -0.0984914 3.01921 -0.19509Q3.03843 -0.291689 3.07612 -0.382683Q3.11381 -0.473678 3.16853 -0.55557Q3.22325 -0.637463 3.29289 -0.707107Q3.36254 -0.776751 3.44443 -0.83147Q3.52632 -0.886188 3.61732 -0.923879Q3.70831 -0.96157 3.80491 -0.980785Q3.90151 -1 4 -1Q4.09849 -1 4.19509 -0.980785Q4.29169 -0.96157 4.38268 -0.923879Q4.47368 -0.886188 4.55557 -0.83147Q4.63746 -0.776751 4.70711 -0.707107Q4.77675 -0.637463 4.83147 -0.55557Q4.88619 -0.473678 4.92388 -0.382683Q4.96157 -0.291689 4.98078 -0.19509Q5 -0.0984914 5 0L5 4Q5 4.599 4.77058 5.14962Q4.54085 5.70096 4.11715 6.11715Q3.70097 6.54085 3.14962 6.77058Q2.599 7 2 7L0 7Q-0.0984914 7 -0.19509 6.98078Q-0.291689 6.96157 -0.382683 6.92388Q-0.473678 6.88619 -0.55557 6.83147Q-0.637463 6.77675 -0.707107 6.70711Q-0.776751 6.63746 -0.83147 6.55557Q-0.886188 6.47368 -0.923879 6.38268Q-0.96157 6.29169 -0.980785 6.19509Q-1 6.09849 -1 6Q-1 5.90151 -0.980785 5.80491Q-0.96157 5.70831 -0.923879 5.61732Q-0.886188 5.52632 -0.83147 5.44443Q-0.776751 5.36254 -0.707107 5.29289Q-0.637463 5.22325 -0.55557 5.16853Q-0.473678 5.11381 -0.382683 5.07612Q-0.291689 5.03843 -0.19509 5.01921Q-0.0984914 5 0 5L2 5Q2.41348 5 2.69353 4.71238Q2.70283 4.70283 2.71238 4.69353Q3 4.41348 3 4L3 0Z " /><path  id="矩形 1" style="stroke:#222625; stroke-width:2; stroke-opacity:1; stroke-dasharray:0 0" transform="translate(15 13)  rotate(0 2 3)" d="" /><path id="路径 33"  style="fill:#000000" transform="translate(3 13)  rotate(0 9 0.5)" opacity="100" d="M0 1Q-0.0984914 1 -0.19509 0.980785Q-0.291689 0.96157 -0.382683 0.923879Q-0.473678 0.886188 -0.55557 0.83147Q-0.637463 0.776751 -0.707107 0.707107Q-0.776751 0.637463 -0.83147 0.55557Q-0.886188 0.473678 -0.923879 0.382683Q-0.96157 0.291689 -0.980785 0.19509Q-1 0.0984914 -1 0Q-1 -0.0984914 -0.980785 -0.19509Q-0.96157 -0.291689 -0.923879 -0.382683Q-0.886188 -0.473678 -0.83147 -0.55557Q-0.776751 -0.637463 -0.707107 -0.707107Q-0.637463 -0.776751 -0.55557 -0.83147Q-0.473678 -0.886188 -0.382683 -0.923879Q-0.291689 -0.96157 -0.19509 -0.980785Q-0.0984914 -1 0 -1L18 -1Q18.0985 -1 18.1951 -0.980785Q18.2917 -0.96157 18.3827 -0.923879Q18.4737 -0.886188 18.5556 -0.83147Q18.6375 -0.776751 18.7071 -0.707107Q18.7767 -0.637463 18.8315 -0.55557Q18.8862 -0.473678 18.9239 -0.382683Q18.9616 -0.291689 18.9808 -0.19509Q19 -0.0984914 19 0Q19 0.0984914 18.9808 0.19509Q18.9616 0.291689 18.9239 0.382683Q18.8862 0.473678 18.8315 0.55557Q18.7767 0.637463 18.7071 0.707107Q18.6375 0.776751 18.5556 0.83147Q18.4737 0.886188 18.3827 0.923879Q18.2917 0.96157 18.1951 0.980785Q18.0985 1 18 1L0 1Z " /><path  id="路径 33" style="stroke:#222625; stroke-width:2; stroke-opacity:1; stroke-dasharray:0 0" transform="translate(3 13)  rotate(0 9 0.5)" d="" /></g></g></svg>