<svg xmlns="http://www.w3.org/2000/svg" xmlns:xlink="http://www.w3.org/1999/xlink" width="24" height="24" viewBox="0 0 24 24" fill="none"><defs><rect id="path_0" x="0" y="0" width="24" height="24" /></defs><g opacity="1" transform="translate(0 0)  rotate(0 12 12)"><mask id="bg-mask-0" fill="white"><use xlink:href="#path_0"></use></mask><g mask="url(#bg-mask-0)" ><path  id="圆形 1" style="stroke:#222625; stroke-width:2; stroke-opacity:1; stroke-dasharray:0 0" transform="translate(3 3)  rotate(0 8 8)" d="M8,0C3.58,0 0,3.58 0,8C0,12.42 3.58,16 8,16C12.42,16 16,12.42 16,8C16,3.58 12.42,0 8,0Z " /><path id="路径 1"  style="fill:#000000" transform="translate(17 17)  rotate(0 2 2)" opacity="100" d="M-0.707107 0.707107Q-0.776751 0.637463 -0.83147 0.55557Q-0.886188 0.473678 -0.923879 0.382683Q-0.96157 0.291689 -0.980785 0.19509Q-1 0.0984914 -1 0Q-1 -0.0984914 -0.980785 -0.19509Q-0.96157 -0.291689 -0.923879 -0.382683Q-0.886188 -0.473678 -0.83147 -0.55557Q-0.776751 -0.637463 -0.707107 -0.707107Q-0.637463 -0.776751 -0.55557 -0.83147Q-0.473678 -0.886188 -0.382683 -0.923879Q-0.291689 -0.96157 -0.19509 -0.980785Q-0.0984914 -1 0 -1Q0.0984914 -1 0.19509 -0.980785Q0.291689 -0.96157 0.382683 -0.923879Q0.473678 -0.886188 0.55557 -0.83147Q0.637463 -0.776751 0.707107 -0.707107L4.70711 3.29289Q4.77675 3.36254 4.83147 3.44443Q4.88619 3.52632 4.92388 3.61732Q4.96157 3.70831 4.98078 3.80491Q5 3.90151 5 4Q5 4.09849 4.98078 4.19509Q4.96157 4.29169 4.92388 4.38268Q4.88619 4.47368 4.83147 4.55557Q4.77675 4.63746 4.70711 4.70711Q4.63746 4.77675 4.55557 4.83147Q4.47368 4.88619 4.38268 4.92388Q4.29169 4.96157 4.19509 4.98078Q4.09849 5 4 5Q3.90151 5 3.80491 4.98078Q3.70831 4.96157 3.61732 4.92388Q3.52632 4.88619 3.44443 4.83147Q3.36254 4.77675 3.29289 4.70711L-0.707107 0.707107Z " /><path  id="路径 1" style="stroke:#222625; stroke-width:2; stroke-opacity:1; stroke-dasharray:0 0" transform="translate(17 17)  rotate(0 2 2)" d="" /></g></g></svg>